<?xml version="1.0" encoding="utf-8"?>
<!-- Generator: Adobe Illustrator 16.0.0, SVG Export Plug-In . SVG Version: 6.00 Build 0)  -->
<!DOCTYPE svg PUBLIC "-//W3C//DTD SVG 1.1//EN" "http://www.w3.org/Graphics/SVG/1.1/DTD/svg11.dtd">
<svg version="1.1" id="Layer_1" xmlns="http://www.w3.org/2000/svg" xmlns:xlink="http://www.w3.org/1999/xlink" x="0px" y="0px"
	 width="240px" height="202.5px" viewBox="0 0 240 202.5" enable-background="new 0 0 240 202.5" xml:space="preserve">
<path fill="#A1B728" d="M212.688,49.188h-16.297v17.335c0,9.563,8.039,17.313,18.08,17.313h16.569V66.499
	C231.04,56.932,222.729,49.188,212.688,49.188L212.688,49.188z"/>
<path fill="#A1B728" d="M212.688,46.346h-16.297V29.014c0-9.564,8.039-17.317,18.08-17.317h16.569v17.345
	C231.04,38.607,222.729,46.346,212.688,46.346L212.688,46.346z"/>
<path fill="#A1B728" d="M177.253,49.188h16.304v17.335c0,9.563-8.041,17.313-18.084,17.313h-16.564V66.499
	C158.907,56.932,167.214,49.188,177.253,49.188L177.253,49.188z"/>
<path fill="#A1B728" d="M177.253,46.346h16.304V29.014c0-9.564-8.041-17.317-18.084-17.317h-16.564v17.345
	C158.907,38.607,167.214,46.346,177.253,46.346L177.253,46.346z"/>
<path fill="#A1B728" d="M177.253,121.326h16.304v-17.338c0-9.564-8.041-17.309-18.084-17.309h-16.564v17.338
	C158.907,113.582,167.214,121.326,177.253,121.326L177.253,121.326z"/>
<path fill="#A1B728" d="M212.688,196.303h-16.297v-17.332c0-9.568,8.039-17.315,18.08-17.315h16.569v17.34
	C231.04,188.559,222.729,196.303,212.688,196.303L212.688,196.303z"/>
<path fill="#A1B728" d="M102.28,49.188h16.297v17.335c0,9.563-8.037,17.313-18.078,17.313H83.933V66.499
	C83.933,56.932,92.247,49.188,102.28,49.188L102.28,49.188z"/>
<path fill="#A1B728" d="M137.718,49.188h-16.303v17.335c0,9.563,8.043,17.313,18.08,17.313h16.569V66.499
	C156.064,56.932,147.757,49.188,137.718,49.188L137.718,49.188z"/>
<path fill="#A1B728" d="M137.718,46.346h-16.303V29.014c0-9.564,8.043-17.317,18.08-17.317h16.569v17.345
	C156.064,38.607,147.757,46.346,137.718,46.346L137.718,46.346z"/>
<path fill="#A1B728" d="M102.28,121.326h16.297v-17.338c0-9.564-8.037-17.309-18.078-17.309H83.933v17.338
	C83.933,113.582,92.247,121.326,102.28,121.326L102.28,121.326z"/>
<path fill="#A1B728" d="M102.28,124.162h16.297v17.335c0,9.563-8.037,17.313-18.078,17.313H83.933v-17.334
	C83.933,131.904,92.247,124.162,102.28,124.162L102.28,124.162z"/>
<path fill="#A1B728" d="M137.718,124.162h-16.303v17.335c0,9.563,8.043,17.313,18.08,17.313h16.569v-17.334
	C156.064,131.904,147.757,124.162,137.718,124.162L137.718,124.162z"/>
<path fill="#A1B728" d="M27.308,46.346h16.297V29.014c0-9.564-8.039-17.317-18.07-17.317H8.96v17.345
	C8.96,38.607,17.271,46.346,27.308,46.346L27.308,46.346z"/>
<path fill="#A1B728" d="M212.688,49.188h-16.297v17.335c0,9.563,8.039,17.313,18.08,17.313h16.569V66.499
	C231.04,56.932,222.729,49.188,212.688,49.188L212.688,49.188z"/>
<path fill="#A1B728" d="M212.688,46.346h-16.297V29.014c0-9.564,8.039-17.317,18.08-17.317h16.569v17.345
	C231.04,38.607,222.729,46.346,212.688,46.346L212.688,46.346z"/>
<path fill="#A1B728" d="M177.253,49.188h16.304v17.335c0,9.563-8.041,17.313-18.084,17.313h-16.564V66.499
	C158.907,56.932,167.214,49.188,177.253,49.188L177.253,49.188z"/>
<path fill="#A1B728" d="M177.253,46.346h16.304V29.014c0-9.564-8.041-17.317-18.084-17.317h-16.564v17.345
	C158.907,38.607,167.214,46.346,177.253,46.346L177.253,46.346z"/>
<path fill="#A1B728" d="M177.253,121.326h16.304v-17.338c0-9.564-8.041-17.309-18.084-17.309h-16.564v17.338
	C158.907,113.582,167.214,121.326,177.253,121.326L177.253,121.326z"/>
<path fill="#A1B728" d="M212.688,196.303h-16.297v-17.332c0-9.568,8.039-17.315,18.08-17.315h16.569v17.34
	C231.04,188.559,222.729,196.303,212.688,196.303L212.688,196.303z"/>
<path fill="#A1B728" d="M102.28,49.188h16.297v17.335c0,9.563-8.037,17.313-18.078,17.313H83.933V66.499
	C83.933,56.932,92.247,49.188,102.28,49.188L102.28,49.188z"/>
<path fill="#A1B728" d="M137.718,49.188h-16.303v17.335c0,9.563,8.043,17.313,18.08,17.313h16.569V66.499
	C156.064,56.932,147.757,49.188,137.718,49.188L137.718,49.188z"/>
<path fill="#A1B728" d="M137.718,46.346h-16.303V29.014c0-9.564,8.043-17.317,18.08-17.317h16.569v17.345
	C156.064,38.607,147.757,46.346,137.718,46.346L137.718,46.346z"/>
<path fill="#A1B728" d="M102.28,121.326h16.297v-17.338c0-9.564-8.037-17.309-18.078-17.309H83.933v17.338
	C83.933,113.582,92.247,121.326,102.28,121.326L102.28,121.326z"/>
<path fill="#A1B728" d="M102.28,124.162h16.297v17.335c0,9.563-8.037,17.313-18.078,17.313H83.933v-17.334
	C83.933,131.904,92.247,124.162,102.28,124.162L102.28,124.162z"/>
<path fill="#A1B728" d="M137.718,124.162h-16.303v17.335c0,9.563,8.043,17.313,18.08,17.313h16.569v-17.334
	C156.064,131.904,147.757,124.162,137.718,124.162L137.718,124.162z"/>
<path fill="#A1B728" d="M27.308,46.346h16.297V29.014c0-9.564-8.039-17.317-18.07-17.317H8.96v17.345
	C8.96,38.607,17.271,46.346,27.308,46.346L27.308,46.346z"/>
</svg>
