<?xml version="1.0" encoding="utf-8"?>
<!-- Generator: Adobe Illustrator 18.1.1, SVG Export Plug-In . SVG Version: 6.00 Build 0)  -->
<svg version="1.1" xmlns="http://www.w3.org/2000/svg" xmlns:xlink="http://www.w3.org/1999/xlink" x="0px" y="0px"
	 viewBox="0 0 249.6 216" enable-background="new 0 0 249.6 216" xml:space="preserve">
<g id="Layer_3">
	<rect fill="none" width="249.6" height="216"/>
</g>
<g id="Layer_6">
	<g>
		<path fill="#004069" d="M48.6,135.5v0.3c0.1,0,0.2-0.1,0.3-0.1C48.8,135.7,48.7,135.6,48.6,135.5z"/>
		<path fill="#004069" d="M130.5,71.1L143.3,95l-0.2-5l-11.6-20.7C131.2,69.9,130.8,70.5,130.5,71.1z"/>
		<path fill="#004069" d="M129.6,66l-12.9-23.1c-0.3,0.2-0.7,0.3-0.9,0.5l12.9,24.3C129,67.1,129.3,66.6,129.6,66z"/>
		<path fill="#004069" d="M9.5,160.5c0.1-0.3,0.2-0.6,0.3-0.9c2.5-7,4.5-14.5,6.3-22.3c1.1-4.9,2.1-9.9,3.1-15
			c0.6-3.4,1.2-6.8,1.8-10.2l-1-0.2c-0.1,0.8-0.3,1.5-0.4,2.3c-1.3,7.9-2.8,15.6-4.5,23c-1.8,7.9-3.9,15.5-6.4,22.6
			c-0.1,0.2-0.1,0.4-0.2,0.5L9.5,160.5z"/>
		<path fill="#004069" d="M30.1,131.1c0-0.1,0-0.1,0-0.2c0.1-0.3,0.1-0.6,0.2-0.9c1.1-4.8,2.1-9.7,3-14.6c0.3-1.5,0.5-2.9,0.8-4.4
			l-1-0.2c-0.1,0.4-0.2,0.9-0.2,1.3c-1,5.7-2.1,11.3-3.3,16.7c-0.1,0.3-0.1,0.6-0.2,0.9c0,0.1,0,0.2-0.1,0.3
			c-0.1,0.3-0.1,0.6-0.2,0.9c-0.4,1.7-0.8,3.3-1.2,5c-0.1,0.5-0.2,0.9-0.4,1.4c-0.2,0.6-0.3,1.2-0.5,1.9c-0.1,0.3-0.2,0.6-0.2,0.9
			c0,0.1-0.1,0.3-0.1,0.4c-0.9,3.1-1.8,6.2-2.7,9.3c0,0.1-0.1,0.2-0.1,0.3c-1,3.2-2,6.2-3,9.1c0,0.1-0.1,0.2-0.1,0.3
			c0,0,0,0.1-0.1,0.1c0,0.1-0.1,0.3-0.1,0.4l1,0.3c0.1-0.2,0.2-0.4,0.2-0.7c0-0.1,0-0.1,0.1-0.2c0-0.1,0.1-0.2,0.1-0.3
			c0.7-1.9,1.3-3.8,2-5.8c0-0.1,0.1-0.2,0.1-0.3c0.9-2.9,1.8-5.9,2.7-8.9c0-0.1,0.1-0.2,0.1-0.4c0.4-1.6,0.9-3.1,1.3-4.7
			c0.2-0.6,0.3-1.3,0.5-1.9c0.1-0.4,0.2-0.8,0.3-1.1c0.2-0.9,0.4-1.8,0.6-2.6c0-0.1,0.1-0.3,0.1-0.4c0.1-0.4,0.2-0.8,0.3-1.2
			C30,131.7,30.1,131.4,30.1,131.1z"/>
		<path fill="none" d="M74.2,135.4c-1.4,0.7-2.7,1.2-4.1,1.7v24.3l4.1,0.2V135.4z"/>
		<path fill="none" d="M70,119.9c-1.6,1.9-3.2,3.7-4.8,5.3v0.6c1.6-1.6,3.2-3.3,4.8-5.1V119.9z"/>
		<path fill="none" d="M78.3,133.1c-1.4,0.8-2.7,1.6-4,2.2v26.3l4,0.2V133.1z"/>
		<path fill="none" d="M70,122.9c-1.6,1.7-3.2,3.4-4.8,4.9v8.9c1.6-0.4,3.2-1,4.8-1.7V122.9z"/>
		<path fill="none" d="M78.3,112.8c-2.7,3.6-5.4,6.9-8.2,9.9V135c2.7-1.2,5.5-2.8,8.2-4.7V112.8z"/>
		<polygon fill="none" points="74.2,163 70.1,162.7 70.1,163.1 74.2,163.4 		"/>
		<polygon fill="none" points="74.3,163.4 78.3,163.7 78.3,163.2 74.3,163 		"/>
		<polygon fill="none" points="83.4,164 86.9,164.3 86.9,163.8 83.4,163.6 		"/>
		<path fill="none" d="M86.9,126.9c-1.2,1-2.3,1.9-3.5,2.7V162l3.5,0.1V126.9z"/>
		<path fill="none" d="M86.9,100.5c-2.7,4.2-5.6,8.4-8.5,12.2v17.5c2.8-1.9,5.7-4.2,8.5-6.8V100.5z"/>
		<path fill="none" d="M78.3,109.1c-2.7,3.8-5.4,7.4-8.2,10.6v0.9c2.8-3.1,5.5-6.6,8.2-10.3V109.1z"/>
		<path fill="none" d="M83.3,129.7c-1.6,1.2-3.3,2.3-4.9,3.3v28.7l4.9,0.2V129.7z"/>
		<polygon fill="none" points="83.3,163.5 78.4,163.2 78.4,163.7 83.3,164 		"/>
		<polygon fill="none" points="63,162.6 65.1,162.8 65.1,162.4 63,162.3 		"/>
		<path fill="none" d="M60.9,129.3c-1.5,1.3-3,2.5-4.5,3.6v0.2c1.5-1,3-2.1,4.5-3.3V129.3z"/>
		<path fill="none" d="M70,137.1c-0.7,0.2-1.3,0.4-2,0.6v23.6l2,0.1V137.1z"/>
		<path fill="none" d="M86.9,96.1c-2.7,4.5-5.6,8.8-8.5,12.9v1.3c2.9-4,5.8-8.2,8.5-12.6V96.1z"/>
		<path fill="none" d="M62.9,138.7c-0.7,0.1-1.3,0.1-2,0.1V161l2,0.1V138.7z"/>
		<path fill="none" d="M60.9,137.5v-5.9c-1.5,1.2-3,2.2-4.5,3.2v2.4c1,0.2,2,0.4,3,0.4C59.9,137.5,60.4,137.5,60.9,137.5z"/>
		<path fill="none" d="M60.9,138.8c-0.4,0-0.8,0-1.1,0c-0.4,0-0.9,0-1.3,0v22.2l2.4,0.1V138.8z"/>
		<polygon fill="none" points="62.9,162.3 61,162.1 61,162.5 62.9,162.6 		"/>
		<path fill="none" d="M65.1,138.4c-0.7,0.1-1.4,0.2-2,0.3v22.4l2,0.1V138.4z"/>
		<polygon fill="none" points="68,162.6 65.2,162.4 65.2,162.8 68,163 		"/>
		<polygon fill="none" points="68.1,163 70,163.1 70,162.7 68.1,162.6 		"/>
		<path fill="none" d="M68,137.8c-0.9,0.3-1.8,0.5-2.8,0.6v22.8l2.8,0.1V137.8z"/>
		<path fill="none" d="M65.1,125.3c-1.4,1.4-2.7,2.7-4.1,3.9v0.4c1.4-1.1,2.7-2.4,4.1-3.7V125.3z"/>
		<path fill="none" d="M65.1,127.9c-1.4,1.3-2.8,2.5-4.1,3.6v6c1.4-0.1,2.7-0.4,4.1-0.7V127.9z"/>
		<path fill="none" d="M126.5,77.9c-3.9,6.4-8.2,13-12.8,19.3l-0.2,7.5h13.1V77.9z"/>
		<path fill="none" d="M128.4,109.3c-0.6,0-1.2,0-1.8,0v54.5l18.8,0.8l-1.6-50.4h-0.1C142,111.4,135.8,109.3,128.4,109.3z"/>
		<path fill="none" d="M243.5,175c-0.4-0.5-0.8-0.9-1.2-1.4l-2.4-0.2c0.4,0.5,0.8,0.9,1.1,1.4L243.5,175z"/>
		<path fill="none" d="M190.4,171.4l49.2,3.4c-0.4-0.5-0.8-0.9-1.1-1.4l-48.7-3.1L190.4,171.4z"/>
		<path fill="none" d="M219.3,147.5c5.4,7.1,11,14.1,16.6,21l2.3,0.1c-5.6-6.8-11.1-13.7-16.5-20.6c-27-34.6-53-70.7-76.5-107.6
			l0.1,1.3C168.4,78.1,192.5,112.7,219.3,147.5z"/>
		<path fill="none" d="M143,86.8l-1.2-38.6c-2.2,5.5-5.5,12.2-9.5,19.5L143,86.8z"/>
		<path fill="none" d="M130.5,71.1L143.3,95l-0.2-5l-11.6-20.7C131.2,69.9,130.8,70.5,130.5,71.1z"/>
		<path fill="none" d="M126.6,77.7v27h17l-0.2-6.5l-13.7-25.7C128.7,74.3,127.6,76,126.6,77.7z"/>
		<polygon fill="none" points="183.2,169.8 183.8,170.9 188.6,171.2 188,170.2 		"/>
		<polygon fill="none" points="126.6,166.3 126.6,167 145.6,168.3 145.5,167.5 		"/>
		<polygon fill="none" points="185.9,166.4 148,98.7 148.2,104.3 181.2,166.2 		"/>
		<path fill="none" d="M234.5,168.4c-5.4-6.7-10.8-13.5-16-20.3c-26.5-34.3-50.2-68.4-73.1-104.2l2.5,51.5l39.8,71L234.5,168.4z"/>
		<polygon fill="none" points="151.3,167.8 151.3,168.7 182,170.8 181.5,169.7 		"/>
		<polygon fill="none" points="148.4,107.7 151.2,164.9 179.5,166.1 		"/>
		<path fill="none" d="M126.5,109.3c-6.4,0.3-11.6,2.2-13.4,4.7l-0.8,49.2l14.1,0.6V109.3z"/>
		<path fill="none" d="M97.6,112.5V82.3c-3.3,6-6.8,12.1-10.6,18v23C90.6,120.1,94.1,116.5,97.6,112.5z"/>
		<path fill="none" d="M97.6,76.9c-3.2,6.3-6.8,12.7-10.6,19v1.6c3.8-6.1,7.4-12.3,10.6-18.4V76.9z"/>
		<path fill="none" d="M97.6,116.8c-1.9,2.1-3.9,4-5.9,5.9v39.7l5.9,0.3V116.8z"/>
		<path fill="none" d="M91.7,122.7c-1.5,1.4-3.1,2.8-4.6,4.1v35.3l4.6,0.2V122.7z"/>
		<polygon fill="none" points="104.9,164.9 97.7,164.5 97.7,165 104.9,165.5 		"/>
		<polygon fill="none" points="91.8,164.6 97.6,165 97.6,164.4 91.8,164.1 		"/>
		<path fill="none" d="M140.3,42.9c-2.6-1.2-6.9-2-11.8-2c-4.1,0-7.9,0.6-10.5,1.5l12.4,22.1C135.1,55.9,138.6,48.2,140.3,42.9z"/>
		<path fill="none" d="M104.9,108.5c-2.4,2.9-4.8,5.6-7.2,8.2v45.9l7.2,0.3V108.5z"/>
		<polygon fill="none" points="58.4,162.3 60.9,162.5 60.9,162.1 58.4,162 		"/>
		<path fill="none" d="M129.6,66l-12.9-23.1c-0.3,0.2-0.7,0.3-0.9,0.5l12.9,24.3C129,67.1,129.3,66.6,129.6,66z"/>
		<path fill="none" d="M115.3,45.6l-1.4,46c5.2-7.5,10-15.2,14-22.4L115.3,45.6z"/>
		<polygon fill="none" points="126.5,166.3 112.3,165.4 112.3,166 126.5,167 		"/>
		<polygon fill="none" points="91.7,164.1 87,163.8 87,164.3 91.7,164.6 		"/>
		<path fill="none" d="M45.7,132.1v-0.2c-0.9-0.9-1.8-2-2.7-3.2v0.5C43.8,130.3,44.7,131.3,45.7,132.1z"/>
		<path fill="none" d="M37.2,121.6c-0.7-1.4-1.4-2.9-2.1-4.5l0.9,18.3c0.4,0.2,0.8,0.4,1.1,0.6V121.6z"/>
		<path fill="none" d="M37.2,120v-1.1c-0.8-1.7-1.5-3.5-2.3-5.5l0.1,1.5C35.7,116.8,36.5,118.5,37.2,120z"/>
		<polygon fill="none" points="38,160.9 38,160.7 37.3,160.6 37.3,160.9 		"/>
		<path fill="none" d="M37.2,137.5c-0.4-0.1-0.7-0.3-1.1-0.5l1.1,21.2V137.5z"/>
		<polygon fill="none" points="32.4,160.5 34.8,160.7 34.8,160.5 32.4,160.3 		"/>
		<path fill="none" d="M32.4,140.1v19.7l2.4,0.1l-0.6-18.6h0C33.9,140.8,33.3,140.4,32.4,140.1z"/>
		<polygon fill="none" points="38.1,160.9 40,161.1 40,160.8 38.1,160.7 		"/>
		<path fill="none" d="M58.3,138.7c-0.7,0-1.3-0.1-2-0.2v22.3l2,0.1V138.7z"/>
		<path fill="none" d="M40,124.4c-0.9-1.6-1.8-3.3-2.7-5.2v1.1c0.9,1.8,1.8,3.5,2.7,5V124.4z"/>
		<path fill="none" d="M34.1,135.9c-0.6-0.4-1.1-0.8-1.6-1.3v2.8h1.7L34.1,135.9z"/>
		<path fill="none" d="M38,137.8c-0.2-0.1-0.4-0.1-0.7-0.2V160l0.7,0V137.8z"/>
		<path fill="none" d="M40,138.3c-0.1,0-0.2-0.1-0.3-0.1c-0.6-0.1-1.1-0.2-1.7-0.4V160l2,0.1V138.3z"/>
		<path fill="none" d="M40,137.1v-10.5c-0.9-1.4-1.8-3-2.7-4.7v14.3c0.8,0.4,1.5,0.7,2.3,0.9C39.7,137.1,39.9,137.1,40,137.1z"/>
		<path fill="none" d="M105,162.9l1.9,0.1l2.4-60.1c-1.4,1.8-2.9,3.7-4.3,5.4V162.9z"/>
		<polygon fill="none" points="105,164.9 105,165.5 106.9,165.6 106.9,165 		"/>
		<path fill="none" d="M97.7,112.4c2.4-2.8,4.9-5.7,7.2-8.7v-0.1h0.1c1.5-2,3.1-4,4.6-6l1.8-44.9c-3.2,8.3-7.9,18.7-13.7,29.4V112.4
			z"/>
		<polygon fill="none" points="24,160 26.7,160.2 26.7,160 24,159.8 		"/>
		<path fill="none" d="M23.9,121.7c-0.9-2.2-1.8-4.6-2.6-7.3l-0.8,22.9h3.4V121.7z"/>
		<path fill="none" d="M97.7,78.9c6.1-11.7,11-22.8,13.9-30.9l0.2-3.9c-2.7,8.3-7.6,20.2-14,32.6V78.9z"/>
		<polygon fill="none" points="26.8,160.2 29.5,160.3 29.5,160.1 26.8,160 		"/>
		<path fill="none" d="M26.7,127.4c-0.9-1.6-1.8-3.4-2.7-5.4v15.4h2.7V127.4z"/>
		<path fill="none" d="M24,159.4l2.7,0.1v-15.2c0-0.1,0.1-0.2,0.1-0.4v15.6l2.7,0.1v-20.3c-0.5-0.1-0.9-0.1-1.4-0.1
			c0.2-0.6,0.3-1.3,0.5-1.9h0.9v-3.8c0-0.1,0.1-0.3,0.1-0.4v4.2h2.7v-2.9c-0.8-0.7-1.6-1.5-2.4-2.5c0.1-0.3,0.1-0.6,0.2-0.9
			c0.5,0.6,1.1,1.2,1.6,1.7c-0.5-0.6-1.1-1.2-1.6-1.9c0.1-0.3,0.1-0.6,0.2-0.9c1.2,1.5,2.4,2.8,3.6,3.9l-0.6-18.5
			c0.3-1.5,0.5-2.9,0.8-4.4l-1-0.2c-0.1,0.4-0.2,0.9-0.2,1.3c-1.1-0.5-3.2-0.9-5.6-0.9c-2.1,0-4,0.3-5.2,0.7
			c2.1,7.3,4.6,12.9,7.4,16.9c-0.1,0.3-0.1,0.6-0.2,0.9c-2.9-4.2-5.5-9.9-7.8-17.6c-0.1,0.1-0.2,0.1-0.3,0.2l0,0.2
			c2.3,7.8,5,13.5,8,17.5c-0.1,0.3-0.1,0.6-0.2,0.9c-0.8-1-1.6-2.2-2.3-3.4v9.8h0.7c-0.2,0.6-0.3,1.2-0.5,1.9c-0.1,0-0.2,0-0.2,0
			v0.9c0,0.1-0.1,0.3-0.1,0.4v-1.3c-1,0-1.9,0.1-2.7,0.3v10.3c0,0.1-0.1,0.2-0.1,0.3v-10.6c-1.7,0.3-3,0.9-3.6,1.6l-0.5,18l1.1,0
			c0,0.1-0.1,0.2-0.1,0.3l-1-0.1l0,0.1l0.9,0.1c0,0.1-0.1,0.3-0.1,0.4l1,0.3c0.1-0.2,0.2-0.4,0.2-0.7l2.1,0.1v-0.2l-2.1-0.1
			c0-0.1,0.1-0.2,0.1-0.3l2,0.1v-5.9c0-0.1,0.1-0.2,0.1-0.3V159.4z"/>
		<polygon fill="none" points="29.6,160.4 32.3,160.5 32.3,160.3 29.6,160.2 		"/>
		<path fill="none" d="M32.3,140.1c-0.8-0.3-1.7-0.5-2.7-0.6v20.3l2.7,0.1V140.1z"/>
		<polygon fill="none" points="41.5,160.9 40.1,160.8 40.1,161.1 41.5,161.2 		"/>
		<polygon fill="none" points="52.1,161.6 51.4,161.5 51.4,161.8 52.1,161.9 		"/>
		<path fill="none" d="M54.8,138.2L54.8,138.2c-0.9-0.2-1.8-0.5-2.7-0.8v23.3l2.7,0.1V138.2z"/>
		<polygon fill="none" points="54.8,161.7 52.2,161.6 52.2,161.9 54.8,162.1 		"/>
		<polygon fill="none" points="41.6,161.2 42.8,161.3 42.8,161 41.6,160.9 		"/>
		<polygon fill="none" points="48.6,161.7 51.3,161.8 51.3,161.5 48.6,161.4 		"/>
		<path fill="none" d="M48.6,160.5l2.7,0.1v-23.3c-0.9,0.4-1.8,0.7-2.7,0.9V160.5z"/>
		<path fill="none" d="M56.3,133c-1,0.7-1.9,1.3-2.9,1.9c0.9-0.5,1.9-1.1,2.9-1.7V133z"/>
		<path fill="none" d="M56.3,138.5c-0.5-0.1-0.9-0.2-1.4-0.3v22.5l1.4,0.1V138.5z"/>
		<path fill="none" d="M48.6,135.5v0.3c0.1,0,0.2-0.1,0.3-0.1C48.8,135.7,48.7,135.6,48.6,135.5z"/>
		<path fill="none" d="M56.3,134.8c-0.9,0.6-1.8,1.1-2.7,1.5c0.9,0.3,1.8,0.6,2.7,0.8V134.8z"/>
		<polygon fill="none" points="58.3,162 56.4,161.8 56.4,162.2 58.3,162.3 		"/>
		<polygon fill="none" points="54.9,162.1 56.3,162.2 56.3,161.8 54.9,161.8 		"/>
		<path fill="none" d="M52.1,137.3c-0.1-0.1-0.3-0.1-0.4-0.2c-0.1,0-0.2,0.1-0.2,0.1v23.3l0.7,0V137.3z"/>
		<path fill="none" d="M42.8,128.6c-0.9-1.2-1.8-2.6-2.7-4.1v0.8c0.9,1.4,1.8,2.6,2.7,3.8V128.6z"/>
		<polygon fill="none" points="45,161.1 43,161 43,161.3 45,161.4 		"/>
		<path fill="none" d="M45,138.8c-0.7,0-1.4,0-2.1,0v21.5l2.1,0.1V138.8z"/>
		<polygon fill="none" points="45.1,161.4 45.7,161.5 45.7,161.2 45.1,161.1 		"/>
		<path fill="none" d="M42.8,137.2v-6.8c-0.9-1.1-1.8-2.3-2.7-3.6v10.4C41,137.2,41.9,137.2,42.8,137.2z"/>
		<path fill="none" d="M41.5,138.8h0.1v21.4l1.2,0.1v-21.5c-0.9-0.1-1.8-0.2-2.7-0.5v21.8l1.4,0.1V138.8z"/>
		<path fill="none" d="M45.8,132v0.2c0.6,0.6,1.3,1.1,1.9,1.6C47,133.3,46.4,132.7,45.8,132z"/>
		<path fill="none" d="M48.5,138.2c-0.9,0.2-1.8,0.4-2.7,0.5v21.6l2.7,0.1V138.2z"/>
		<path fill="none" d="M48.5,135.5c-0.9-0.6-1.8-1.3-2.7-2.1v3.4c0.9-0.2,1.8-0.5,2.7-0.9V135.5z"/>
		<path fill="none" d="M45.7,138.7c-0.2,0-0.4,0-0.5,0v21.6l0.5,0V138.7z"/>
		<polygon fill="none" points="48.5,161.3 45.8,161.2 45.8,161.5 48.5,161.6 		"/>
		<path fill="none" d="M45.7,133.3c-0.9-0.8-1.8-1.8-2.7-2.8v6.7c0.9-0.1,1.8-0.2,2.7-0.4V133.3z"/>
		<path fill="#004069" d="M112.2,168.2l136.2,10.1v-3l-3.5-0.2c-0.4-0.5-0.8-0.9-1.2-1.4l4.7,0.3V169l-8.8-0.4
			c-5.8-7-11.5-14.1-17-21.3c-27.4-35-53.7-71.6-77.4-109l-0.1-2h-3.5l0,1.4h-25.9l0-1.4H112l-0.1,1.7
			c-4.2,19.1-35.2,83.6-61.2,96.7c-6.2-3.7-11.6-11.2-15.9-23.9l-0.1-1.5h-0.4h-0.7h-0.4l0,0c0,0,0,0,0,0l-0.5,0.6H21.6
			c-0.1-0.2-0.1-0.4-0.2-0.6v0h0h-0.6h-0.4h-0.6l-0.2,4.6c0.1-0.8,0.3-1.5,0.4-2.3l1,0.2c-0.6,3.4-1.2,6.9-1.8,10.2l-1.9,37.4
			l-7.5,0c-0.1,0.3-0.2,0.6-0.3,0.9l-1-0.3c0.1-0.2,0.1-0.4,0.2-0.5l-7.5,0l16,2.7l-0.8,15.2h2.9l0.4-12.8h11.5l3.9,0.6l0.3,11.1
			h2.8l-0.5-10.7l68.8,11.4l-1.5,37.9h6.6l0.6-35.2h10.6l23.4,3.9l0.8,26.8h6.5l-1.2-25.7l29.8,4.9h66.4V186l-136.2-14.3V168.2z
			 M126.6,167v-0.7l18.9,1.2l0,0.8L126.6,167z M145.3,43.9c22.9,35.9,46.7,69.9,73.1,104.2c5.3,6.8,10.6,13.6,16,20.3l-46.8-2
			l-39.8-71L145.3,43.9z M148,98.7l37.9,67.7l-4.7-0.2l-33-61.9L148,98.7z M148.4,107.7l31.1,58.4l-28.4-1.2L148.4,107.7z
			 M151.3,168.7l0-0.9l30.2,1.9l0.6,1L151.3,168.7z M183.8,170.9l-0.6-1.1l4.8,0.3l0.6,1.1L183.8,170.9z M242.3,173.6
			c0.4,0.5,0.8,0.9,1.2,1.4l-2.4-0.2c-0.4-0.5-0.8-0.9-1.1-1.4L242.3,173.6z M239.6,174.7l-49.2-3.4l-0.6-1.1l48.7,3.1
			C238.8,173.8,239.2,174.3,239.6,174.7z M221.7,148c5.4,6.9,10.9,13.8,16.5,20.6l-2.3-0.1c-5.6-6.9-11.1-14-16.6-21
			c-26.8-34.8-50.9-69.4-74.1-105.8l-0.1-1.3C168.6,77.4,194.6,113.4,221.7,148z M143.9,114.2l1.6,50.4l-18.8-0.8v-54.5
			c0.6,0,1.2,0,1.8,0C135.8,109.3,142,111.4,143.9,114.2L143.9,114.2z M143.6,104.8h-17v-27c1-1.7,2.1-3.5,3-5.2l13.7,25.7
			L143.6,104.8z M143.3,95l-12.8-23.9c0.3-0.6,0.7-1.2,1-1.8L143.1,90L143.3,95z M141.8,48.3l1.2,38.6l-10.7-19.1
			C136.3,60.5,139.6,53.7,141.8,48.3z M128.6,40.9c4.9,0,9.2,0.8,11.8,2c-1.8,5.3-5.2,13-9.9,21.6l-12.4-22.1
			C120.7,41.5,124.4,40.9,128.6,40.9z M116.7,42.9L129.6,66c-0.3,0.6-0.6,1.1-0.9,1.7l-12.9-24.3C116.1,43.3,116.4,43.1,116.7,42.9z
			 M115.3,45.6l12.6,23.6c-4.1,7.2-8.8,14.9-14,22.4L115.3,45.6z M113.7,97.2c4.6-6.4,9-12.9,12.8-19.3v26.9h-13.1L113.7,97.2z
			 M113.1,114c1.8-2.5,7-4.4,13.4-4.7v54.5l-14.1-0.6L113.1,114z M112.3,165.4l14.2,0.9v0.7l-14.2-1L112.3,165.4z M97.7,116.7
			c2.4-2.6,4.9-5.3,7.2-8.2v54.4l-7.2-0.3V116.7z M97.7,164.5l7.2,0.5v0.6l-7.2-0.5V164.5z M87,95.9c3.8-6.2,7.4-12.7,10.6-19v2.2
			c-3.2,6.1-6.8,12.4-10.6,18.4V95.9z M87,100.3c3.8-5.9,7.3-12,10.6-18v30.2c-3.5,3.9-7,7.6-10.6,10.8V100.3z M91.8,162.3v-39.7
			c2-1.8,3.9-3.8,5.9-5.9v45.8L91.8,162.3z M97.6,164.4v0.6l-5.9-0.4v-0.5L97.6,164.4z M87,126.8c1.5-1.3,3.1-2.7,4.6-4.1v39.6
			l-4.6-0.2V126.8z M87,163.8l4.6,0.3v0.5l-4.6-0.3V163.8z M78.4,109c2.9-4.1,5.8-8.5,8.5-12.9v1.6c-2.7,4.3-5.6,8.6-8.5,12.6V109z
			 M78.4,112.7c2.9-3.9,5.7-8,8.5-12.2v23c-2.8,2.5-5.7,4.8-8.5,6.8V112.7z M83.4,162v-32.3c1.2-0.9,2.3-1.8,3.5-2.7v35.2L83.4,162z
			 M86.9,163.8v0.5l-3.5-0.2v-0.5L86.9,163.8z M78.4,133c1.6-1,3.3-2.1,4.9-3.3V162l-4.9-0.2V133z M78.4,163.2l4.9,0.3v0.5l-4.9-0.3
			V163.2z M70.1,119.8c2.8-3.3,5.5-6.9,8.2-10.6v1.2c-2.7,3.7-5.4,7.1-8.2,10.3V119.8z M70.1,122.8c2.8-3,5.5-6.4,8.2-9.9v17.5
			c-2.8,1.9-5.5,3.5-8.2,4.7V122.8z M74.3,161.6v-26.3c1.3-0.7,2.7-1.4,4-2.2v28.7L74.3,161.6z M78.3,163.2v0.5l-4-0.3V163
			L78.3,163.2z M70.1,137.1c1.3-0.5,2.7-1.1,4.1-1.7v26.2l-4.1-0.2V137.1z M70.1,162.7l4.1,0.3v0.4l-4.1-0.3V162.7z M65.2,125.2
			c1.6-1.7,3.2-3.4,4.8-5.3v0.9c-1.6,1.8-3.2,3.5-4.8,5.1V125.2z M65.2,127.8c1.6-1.5,3.2-3.2,4.8-4.9V135c-1.6,0.7-3.2,1.3-4.8,1.7
			V127.8z M68.1,161.3v-23.6c0.7-0.2,1.3-0.4,2-0.6v24.3L68.1,161.3z M70,162.7v0.4l-2-0.1v-0.4L70,162.7z M65.2,138.4
			c0.9-0.2,1.8-0.4,2.8-0.6v23.5l-2.8-0.1V138.4z M65.2,162.4l2.8,0.2v0.4l-2.8-0.2V162.4z M61,129.3c1.4-1.2,2.7-2.5,4.1-3.9v0.6
			c-1.4,1.3-2.7,2.6-4.1,3.7V129.3z M61,131.4c1.4-1.1,2.7-2.3,4.1-3.6v8.9c-1.4,0.4-2.8,0.6-4.1,0.7V131.4z M63,161.1v-22.4
			c0.7-0.1,1.4-0.1,2-0.3v22.8L63,161.1z M65.1,162.4v0.4l-2-0.1v-0.4L65.1,162.4z M61,138.8c0.7,0,1.3,0,2-0.1v22.4l-2-0.1V138.8z
			 M61,162.1l2,0.1v0.4l-2-0.1V162.1z M56.4,132.9c1.5-1.1,3-2.3,4.5-3.6v0.4c-1.5,1.2-3,2.4-4.5,3.3V132.9z M56.4,134.7
			c1.5-0.9,3-2,4.5-3.2v5.9c-0.5,0-1,0.1-1.5,0.1c-1-0.1-2-0.2-3-0.4V134.7z M58.4,160.9v-22.2c0.4,0,0.9,0,1.3,0c0.4,0,0.8,0,1.1,0
			V161L58.4,160.9z M60.9,162.1v0.4l-2.4-0.2V162L60.9,162.1z M56.4,138.5c0.6,0.1,1.3,0.2,2,0.2v22.2l-2-0.1V138.5z M56.4,161.8
			l2,0.1v0.4l-2-0.1V161.8z M56.3,133v0.2c-1,0.6-1.9,1.2-2.9,1.7C54.4,134.3,55.3,133.7,56.3,133z M54.9,160.8v-22.5
			c0.5,0.1,0.9,0.2,1.4,0.3v22.3L54.9,160.8z M56.3,161.8v0.3l-1.4-0.1v-0.3L56.3,161.8z M53.6,136.3c0.9-0.4,1.8-1,2.7-1.5v2.3
			C55.4,136.9,54.5,136.6,53.6,136.3z M52.2,137.4c0.9,0.4,1.8,0.6,2.7,0.8h-0.1v22.5l-2.7-0.1V137.4z M52.2,161.6l2.7,0.2v0.3
			l-2.7-0.2V161.6z M51.4,137.3c0.1,0,0.2-0.1,0.2-0.1c0.1,0.1,0.3,0.1,0.4,0.2v23.3l-0.7,0V137.3z M51.4,161.5l0.7,0v0.3l-0.7,0
			V161.5z M51.3,137.3v23.3l-2.7-0.1v-22.3C49.5,137.9,50.4,137.7,51.3,137.3z M51.3,161.5v0.3l-2.7-0.2v-0.3L51.3,161.5z
			 M48.6,135.5c0.1,0.1,0.2,0.1,0.3,0.2c-0.1,0-0.2,0.1-0.3,0.1V135.5z M45.8,132c0.6,0.6,1.3,1.2,1.9,1.8c-0.7-0.5-1.3-1-1.9-1.6
			V132z M45.8,133.4c0.9,0.8,1.8,1.5,2.7,2.1v0.4c-0.9,0.4-1.8,0.6-2.7,0.9V133.4z M45.8,138.7c0.9-0.1,1.8-0.3,2.7-0.5v22.3
			l-2.7-0.1V138.7z M45.8,161.2l2.7,0.2v0.3l-2.7-0.2V161.2z M43,128.8c0.9,1.2,1.8,2.2,2.7,3.2v0.2c-0.9-0.8-1.8-1.8-2.7-2.9V128.8
			z M43,130.5c0.9,1,1.8,2,2.7,2.8v3.5c-0.9,0.2-1.8,0.4-2.7,0.4V130.5z M45.1,160.3v-21.6c0.2,0,0.4,0,0.5,0v21.6L45.1,160.3z
			 M45.7,161.2v0.3l-0.5,0v-0.3L45.7,161.2z M43,138.8c0.7,0,1.4,0,2.1,0v21.5l-2.1-0.1V138.8z M43,161l2.1,0.1v0.3l-2.1-0.1V161z
			 M40.1,124.6c0.9,1.5,1.8,2.8,2.7,4.1v0.5c-0.9-1.1-1.8-2.4-2.7-3.8V124.6z M40.1,126.7c0.9,1.3,1.8,2.6,2.7,3.6v6.8
			c-0.9,0.1-1.8,0-2.7-0.1V126.7z M40.1,138.3c0.9,0.2,1.8,0.4,2.7,0.5v21.5l-1.2-0.1v-21.4h-0.1v21.4l-1.4-0.1V138.3z M42.8,161
			v0.3l-1.2-0.1v-0.3L42.8,161z M40.1,160.8l1.4,0.1v0.3l-1.4-0.1V160.8z M37.3,119.2c0.9,1.9,1.8,3.6,2.7,5.2v0.8
			c-0.9-1.5-1.8-3.2-2.7-5V119.2z M37.3,121.9c0.9,1.7,1.8,3.3,2.7,4.7v10.5c-0.1,0-0.3,0-0.4-0.1c-0.8-0.2-1.5-0.5-2.3-0.9V121.9z
			 M38.1,160v-22.2c0.6,0.2,1.1,0.3,1.7,0.4c0.1,0,0.2,0.1,0.3,0.1v21.8L38.1,160z M40,160.8v0.3l-2-0.1v-0.2L40,160.8z M37.3,137.5
			c0.2,0.1,0.4,0.2,0.7,0.2V160l-0.7,0V137.5z M38,160.7v0.2l-0.6,0l0-0.2L38,160.7z M37.2,118.9v1.1c-0.8-1.6-1.5-3.3-2.2-5.1
			l-0.1-1.5C35.7,115.4,36.4,117.2,37.2,118.9z M36.1,135.4l-0.9-18.3c0.7,1.6,1.4,3.1,2.1,4.5v14.4
			C36.8,135.9,36.4,135.7,36.1,135.4z M37.2,137.5v20.7L36.1,137C36.5,137.2,36.9,137.4,37.2,137.5z M34.8,160.5l0,0.2l-2.4-0.2
			v-0.2L34.8,160.5z M34.3,141.3l0.6,18.6l-2.4-0.1v-19.7C33.3,140.4,33.9,140.8,34.3,141.3L34.3,141.3z M32.4,137.4v-2.8
			c0.5,0.5,1.1,0.9,1.6,1.3l0.1,1.6H32.4z M21.3,114.5c0.8,2.7,1.7,5.1,2.6,7.3v15.7h-3.4L21.3,114.5z M23.9,159.4l-2-0.1
			c0,0.1-0.1,0.2-0.1,0.3l2.1,0.1v0.2l-2.1-0.1c-0.1,0.2-0.2,0.5-0.2,0.7l-1-0.3c0-0.1,0.1-0.3,0.1-0.4l-0.9-0.1l0-0.1l1,0.1
			c0-0.1,0.1-0.2,0.1-0.3l-1.1,0l0.5-18c0.6-0.7,1.8-1.3,3.6-1.6v10.6c0-0.1,0.1-0.2,0.1-0.3v-10.3c0.8-0.2,1.7-0.2,2.7-0.3v1.3
			c0-0.1,0.1-0.3,0.1-0.4v-0.9c0.1,0,0.2,0,0.2,0c0.2-0.6,0.3-1.2,0.5-1.9h-0.7v-9.8c0.7,1.3,1.5,2.4,2.3,3.4
			c0.1-0.3,0.1-0.6,0.2-0.9c-3-3.9-5.7-9.7-8-17.5l0-0.2c0.1-0.1,0.2-0.1,0.3-0.2c2.2,7.6,4.9,13.4,7.8,17.6
			c0.1-0.3,0.1-0.6,0.2-0.9c-2.8-4-5.3-9.6-7.4-16.9c1.2-0.4,3.1-0.7,5.2-0.7c2.4,0,4.5,0.4,5.6,0.9c0.1-0.4,0.2-0.9,0.2-1.3l1,0.2
			c-0.2,1.5-0.5,2.9-0.8,4.4l0.6,18.5c-1.3-1-2.5-2.3-3.6-3.9c-0.1,0.3-0.1,0.6-0.2,0.9c0.5,0.7,1,1.3,1.6,1.9
			c-0.5-0.5-1.1-1.1-1.6-1.7c-0.1,0.3-0.1,0.6-0.2,0.9c0.8,0.9,1.6,1.8,2.4,2.5v2.9h-2.7v-4.2c0,0.1-0.1,0.3-0.1,0.4v3.8h-0.9
			c-0.2,0.6-0.3,1.2-0.5,1.9c0.5,0,1,0.1,1.4,0.1v20.3l-2.7-0.1v-15.6c0,0.1-0.1,0.2-0.1,0.4v15.2l-2.7-0.1v-6.2
			c0,0.1-0.1,0.2-0.1,0.3V159.4z M24,137.4V122c0.9,2,1.8,3.8,2.7,5.4v10H24z M29.6,159.7v-20.3c1,0.1,2,0.4,2.7,0.6v19.7
			L29.6,159.7z M32.3,160.3v0.2l-2.7-0.2v-0.2L32.3,160.3z M29.5,160.1v0.2l-2.7-0.2V160L29.5,160.1z M26.7,160v0.2L24,160v-0.2
			L26.7,160z M107.2,170.8L24,161.6l83.2,6.3V170.8z M105,165.5v-0.6l1.9,0.1l0,0.6L105,165.5z M107,163l-1.9-0.1v-54.5
			c1.5-1.8,2.9-3.6,4.3-5.4L107,163z M109.6,97.6c-1.5,2-3,4-4.6,6h-0.1v0.1c-2.4,3-4.8,5.9-7.2,8.7V82.1
			c5.7-10.7,10.5-21.1,13.7-29.4L109.6,97.6z M111.6,48c-2.8,8.1-7.7,19.2-13.9,30.9v-2.2c6.4-12.5,11.4-24.3,14-32.6L111.6,48z"/>
	</g>
</g>
</svg>
